<svg xmlns="http://www.w3.org/2000/svg" width="79.96mm" height="21.58mm" viewBox="0 0 226.65 61.16"><path d="M59.53,18.85A16.43,16.43,0,0,0,48.21,9.76a14,14,0,0,0-7-.31.92.92,0,0,1-.74-.08A23.94,23.94,0,0,0,31,7.47a21.32,21.32,0,0,0-8.82,1.18,37.53,37.53,0,0,0-8.5,3.69,12.17,12.17,0,0,0-5.24,6.4c-2.41,6.31.1,14,7.32,15.09.48.07.64.33.76.76,1.35,4.69,4.68,6.92,9.35,7.48a2,2,0,0,0,.35,0,2.2,2.2,0,0,1-.36,0,9.74,9.74,0,0,0,3.84,0,3.9,3.9,0,0,1,3.42,1,19.82,19.82,0,0,1,3.78,3.71,2.12,2.12,0,0,1,.54,1.87,1.45,1.45,0,0,0,2.83.65,1.4,1.4,0,0,0-1-1.89,1.73,1.73,0,0,1-1.08-.85A17.47,17.47,0,0,0,34,42.27c-.23-.17-.61-.25-.56-.68l3.15-1.2a7.18,7.18,0,0,0,1.4-.56c1-.63,1.23-.16,1.5.73.8,2.55,1.4,5.15,1.95,7.77.12.91.27,1.83.38,2.74s.36,1.74-.41,2.59a1.22,1.22,0,0,0,.43,1.79,1.44,1.44,0,0,0,2-.16,1.28,1.28,0,0,0,0-1.95c-.78-.63-.75-1.43-.89-2.24s-.3-1.82-.45-2.73c0-.36-.07-.72-.13-1.07-.23-1.35-.21-1.38,1.14-1.21a17.39,17.39,0,0,0,4.67.06c2.42-.24,4.58-.94,5.83-3.26a.66.66,0,0,0,.3-.59c.07,0,.09-.06.09-.12A10.4,10.4,0,0,1,57.61,37a4.82,4.82,0,0,0,.57-.89,14.25,14.25,0,0,0,2.91-8.07h-1a18.48,18.48,0,0,1-2.81,7.51,1,1,0,0,1,.3,0,1,1,0,0,0-.3,0,14.06,14.06,0,0,1-2,2.21c-.31-1.45-.58-2.83-.9-4.2a3,3,0,0,1,0-2.3,1.23,1.23,0,0,0-.85-1.72,1.43,1.43,0,0,0-1.87.66,1.26,1.26,0,0,0,.5,1.87,2.13,2.13,0,0,1,1.15,1.69c.72,2.67,1.16,5.34.19,8A6.43,6.43,0,0,1,48.71,45a1.48,1.48,0,0,0,.28.28.38.38,0,0,1,.09.09A.38.38,0,0,0,49,45.3a1.48,1.48,0,0,1-.28-.28A26.91,26.91,0,0,1,43.18,45c-1-.09-1.51-.37-1.68-1.44a17,17,0,0,0-1-3.48c-.36-.93-.29-1.51.7-1.86a2,2,0,0,0,.49-.34h0a23.29,23.29,0,0,0,6-4.64,2.62,2.62,0,0,0,0-.28.94.94,0,0,0-.06-.24.94.94,0,0,1,.06.24,2.62,2.62,0,0,1,0,.28,27,27,0,0,0,5.59-6c.36-.48.7-1,1.1-1.42s.55-1.21,1.41-1.34a1.3,1.3,0,0,0,1.08-1.71,1.33,1.33,0,0,0-1.57-1.15,1.35,1.35,0,0,0-1.31,1.67A2.07,2.07,0,0,1,53.54,25c-.36.52-.7,1.06-1,1.6a72.5,72.5,0,0,1-5.25,5.83,64.17,64.17,0,0,1-5.57,4.27c-1.91,1-1.92,1-2.77-1a35.68,35.68,0,0,0-4-7.37c-.69-.93-.64-1.47.29-2h0c1-.59,1.74-1.6,3.14-1.48.72.07,1.08-.66,1.07-1.36a1.39,1.39,0,0,0-1.16-1.48c-.73-.15-1.51.14-1.55.79-.08,1.33-1.15,1.74-1.87,2.49-.08,0-.12,0-.11.13l-.39.29c-.6.43-1,.38-1.51-.28a24.59,24.59,0,0,0-8.91-7.24,7.56,7.56,0,0,0-2.28-.76c.07.13.2.27.27.4-.07-.13-.2-.27-.27-.4l-.5-.16-.32,0A11.09,11.09,0,0,0,11,19.08a.7.7,0,0,1-.19.06l-1.3,1.49-.26-.22A5.54,5.54,0,0,1,10,18.35a12.32,12.32,0,0,1,2.72-4h0l1.41-1.07.28-.18c.24-.55.08-.75-.27-.79.35,0,.51.24.27.79A17.41,17.41,0,0,1,19,11.49a4.84,4.84,0,0,1,1.23-.38,4.84,4.84,0,0,0-1.23.38l.53-.09.43,0h1.7a1.66,1.66,0,0,0,1,0l.42.06a1.43,1.43,0,0,0,1,.17,35,35,0,0,1,10.16,4.12,77.14,77.14,0,0,1,12.29,9.92A1.5,1.5,0,0,1,47.14,27a1.31,1.31,0,0,0,1.42,1.46A1.33,1.33,0,0,0,50,27a1.3,1.3,0,0,0-1.4-1.47A1.57,1.57,0,0,1,47.39,25c-.62-.63-1.27-1.24-1.92-1.84a60,60,0,0,0-11-8.4c-.17-.32-.74-.29-.7-.8l.29-.31h0a19,19,0,0,1,6.66-3A28.74,28.74,0,0,1,49,16.37,1.9,1.9,0,0,1,49.77,18a1.28,1.28,0,0,0,1.4,1.46,1.33,1.33,0,0,0,1.49-1.26,1.38,1.38,0,0,0-1.29-1.7,1.84,1.84,0,0,1-1.32-.68,27.08,27.08,0,0,0-7.12-5.39,16.41,16.41,0,0,1,4.57.19h0a16.48,16.48,0,0,1,11.24,9.3,17.2,17.2,0,0,1,1.36,8.13h1A14.84,14.84,0,0,0,59.53,18.85ZM58,35.75a.71.71,0,0,0-.22-.13A.71.71,0,0,1,58,35.75ZM33.83,28.56a53.63,53.63,0,0,1,4.51,8.63c.37.88.23,1.3-.66,1.58a14.11,14.11,0,0,0-1.54.68,36.94,36.94,0,0,1-7,1.66h0a15.05,15.05,0,0,1-6.37-1,8.69,8.69,0,0,1-4.8-5c-.35-.88-.31-1.25.82-1.3a14.6,14.6,0,0,0,5.79-1.42h0l.68-.26.26-.09h0l.75-.37h0a.71.71,0,0,0,.06-.56.71.71,0,0,1-.06.56,31,31,0,0,0,6.18-3.46C33.12,27.8,33.42,27.93,33.83,28.56Zm-8.27,2.56.05,0Zm.1.66-.06,0ZM25,32a.33.33,0,0,0-.19,0A.33.33,0,0,1,25,32Zm0-.81Zm.36,0a.3.3,0,0,0,.19-.05A.3.3,0,0,1,25.34,31.19Zm.35.56a.53.53,0,0,1,.19-.05A.53.53,0,0,0,25.69,31.75Zm.2-.05h0ZM9.38,22.1c.76-.77,1.56-1.51,2.34-2.26h0A11.1,11.1,0,0,1,19.2,17.9c5.54.89,9.49,4.22,12.94,8.36.44.53.15.71-.26,1A61.16,61.16,0,0,1,26,30.72h0l-.27.1h0l-.73.37h0l-.7.27a27,27,0,0,1-5.75,1.32c-.9.06-1.24-.24-1.23-1.13a25.12,25.12,0,0,1,.3-3.36,1.47,1.47,0,0,1,.73-1,1.39,1.39,0,0,0,.39-2.1,1.35,1.35,0,0,0-1.92-.4,1.34,1.34,0,0,0-.53,2A1.63,1.63,0,0,1,16.5,28a14.08,14.08,0,0,0-.32,3.83c0,.62-.11.89-.81.73-4.83-1.07-6.83-5.5-6.58-9.41A1.69,1.69,0,0,1,9.38,22.1ZM21,11h0Zm12.7,1.53c-.8,1-1.62.81-2.67.28a18.66,18.66,0,0,0-6-2,18,18,0,0,0-3.59-.59c.26-.57.86-.39,1.18-.69a31.55,31.55,0,0,1,8.43-1.08,29.23,29.23,0,0,1,7.64,1.46A22.79,22.79,0,0,0,33.71,12.57Z" fill="#f68b33"/><path d="M76.75,11.39v25H73v-25Z" fill="#1360a5"/><path d="M83.41,36.4v-25h4.82c3.5,5.81,10.92,17.8,12.27,20.52h0c-.25-3.09-.23-7.11-.23-11.2V11.39h3.47v25H99.25c-3.19-5.33-11-18.38-12.5-21.2h0c.18,2.73.19,7.13.19,11.64V36.4Z" fill="#1360a5"/><path d="M110.44,11.39h16.33v3.15H114.09v7.73H126v3.14H114.09v11h-3.65Z" fill="#1360a5"/><path d="M153.39,23.76c0,6.9-3.92,13-11.84,13-7.45,0-11.56-5.7-11.56-12.87S134.25,11,141.85,11C148.94,11,153.39,16.29,153.39,23.76Zm-19.53,0c0,5.3,2.65,9.84,7.85,9.84,5.61,0,7.81-4.64,7.81-9.81s-2.49-9.66-7.82-9.66S133.86,18.54,133.86,23.79Z" fill="#1360a5"/><path d="M179.79,26c0-4.57.05-9.3.16-12h-.14c-1.09,4.25-4.84,14.53-7.62,22.39h-3.28c-2.1-6.49-6-18-7.11-22.44h-.12c.2,2.9.29,8.37.29,12.66V36.4H158.5v-25H164c2.67,7.53,5.9,17.2,6.74,20.48h0c.6-2.57,4.44-13.14,7.22-20.48h5.36v25h-3.61Z" fill="#1360a5"/><path d="M193.75,11.39v25H190v-25Z" fill="#1360a5"/><path d="M200.4,11.39h3.71V33.25H217l-.49,3.15H200.4Z" fill="#1360a5"/><path d="M78.35,49.6H77l-2.08-2.89-.43.52V49.6h-1v-7h1v3l2.52-3h1.36L75.6,45.9Z" fill="#231f20"/><path d="M84.28,46.46V49.6h-1V46.72a1.13,1.13,0,0,0-.16-.61,1.21,1.21,0,0,0-.43-.44,1.19,1.19,0,0,0-.62-.16,1.12,1.12,0,0,0-.6.16,1.16,1.16,0,0,0-.44.44,1.14,1.14,0,0,0-.17.61V49.6h-1v-5h1v.53a2,2,0,0,1,2.47-.4,1.94,1.94,0,0,1,1,1.73Z" fill="#231f20"/><path d="M88,49.73a2.25,2.25,0,0,1-1.25-.36,2.7,2.7,0,0,1-1-3.3,2.63,2.63,0,0,1,.54-.84,2.5,2.5,0,0,1,.79-.57,2.45,2.45,0,0,1,2.23.15A2.7,2.7,0,0,1,89.8,49a2.61,2.61,0,0,1-.79.57A2.33,2.33,0,0,1,88,49.73Zm0-1a1.37,1.37,0,0,0,.75-.22,1.65,1.65,0,0,0,.52-.59,1.61,1.61,0,0,0,.19-.78,1.66,1.66,0,0,0-.19-.8,1.68,1.68,0,0,0-.53-.59A1.36,1.36,0,0,0,88,45.5a1.29,1.29,0,0,0-.74.22,1.46,1.46,0,0,0-.52.58,1.7,1.7,0,0,0,0,1.6,1.56,1.56,0,0,0,.54.57A1.33,1.33,0,0,0,88,48.69Z" fill="#231f20"/><path d="M94.17,49.6h-1l-1.68-5h1l1.18,3.51,1.17-3.51h1l1.17,3.51,1.18-3.51h1l-1.67,5h-1l-1.18-3.54Z" fill="#231f20"/><path d="M100.8,49.6V42.1h1v7.5Z" fill="#231f20"/><path d="M105.82,49.73a2.25,2.25,0,0,1-1.25-.36,2.7,2.7,0,0,1-1-3.3,2.63,2.63,0,0,1,.54-.84,2.5,2.5,0,0,1,.79-.57,2.31,2.31,0,0,1,1-.2,2.46,2.46,0,0,1,1.06.23,2.49,2.49,0,0,1,.82.66,2.8,2.8,0,0,1,.59,2.11h-3.85a1.62,1.62,0,0,0,.25.62,1.37,1.37,0,0,0,1.13.61,1.38,1.38,0,0,0,.7-.19A1.73,1.73,0,0,0,107,48l1,.25a2.62,2.62,0,0,1-.9,1.08A2.36,2.36,0,0,1,105.82,49.73Zm-1.42-3.06h2.84A1.44,1.44,0,0,0,107,46a1.47,1.47,0,0,0-.5-.46,1.31,1.31,0,0,0-.67-.17,1.24,1.24,0,0,0-.65.17,1.3,1.3,0,0,0-.5.46A1.62,1.62,0,0,0,104.4,46.67Z" fill="#231f20"/><path d="M113.66,42.1h1v7.5h-1v-.74a2,2,0,0,1-.64.63,1.76,1.76,0,0,1-.93.24,2.52,2.52,0,0,1-1-.21,2.79,2.79,0,0,1-.83-.57,2.46,2.46,0,0,1-.57-.83,2.62,2.62,0,0,1,.57-2.89,2.59,2.59,0,0,1,.83-.56,2.52,2.52,0,0,1,1-.21,1.76,1.76,0,0,1,.93.24,2,2,0,0,1,.64.62Zm-1.56,6.62a1.32,1.32,0,0,0,.77-.22,1.54,1.54,0,0,0,.52-.58,1.86,1.86,0,0,0,.18-.82,1.75,1.75,0,0,0-.19-.83,1.46,1.46,0,0,0-.51-.59,1.39,1.39,0,0,0-.77-.21,1.45,1.45,0,0,0-.79.22,1.54,1.54,0,0,0-.57.59,1.61,1.61,0,0,0-.21.82,1.55,1.55,0,0,0,.22.82,1.59,1.59,0,0,0,.57.58A1.44,1.44,0,0,0,112.1,48.72Z" fill="#231f20"/><path d="M120.29,44.6h1v5.13a2,2,0,0,1-.22,1,2.26,2.26,0,0,1-.59.75,2.81,2.81,0,0,1-.84.49,2.85,2.85,0,0,1-1,.18,2.37,2.37,0,0,1-1-.23,2.73,2.73,0,0,1-.85-.6,2.39,2.39,0,0,1-.55-.86l1-.43a1.47,1.47,0,0,0,.33.55,1.52,1.52,0,0,0,.52.38,1.43,1.43,0,0,0,.61.14,1.8,1.8,0,0,0,.6-.1,1.56,1.56,0,0,0,.51-.27,1.44,1.44,0,0,0,.36-.42,1.08,1.08,0,0,0,.14-.53v-.85a2,2,0,0,1-.63.61,1.68,1.68,0,0,1-.9.24,2.46,2.46,0,0,1-1-.21,2.63,2.63,0,0,1-.82-.57,2.76,2.76,0,0,1-.56-.83,2.73,2.73,0,0,1,0-2,2.81,2.81,0,0,1,.56-.84,2.59,2.59,0,0,1,1.82-.77,1.77,1.77,0,0,1,.9.23,2.07,2.07,0,0,1,.63.62Zm-1.52,4.12a1.28,1.28,0,0,0,.76-.22,1.53,1.53,0,0,0,.51-.59,1.94,1.94,0,0,0,0-1.63,1.63,1.63,0,0,0-.51-.59,1.31,1.31,0,0,0-.76-.22,1.35,1.35,0,0,0-.76.22,1.52,1.52,0,0,0-.56.59,1.72,1.72,0,0,0-.2.82,1.64,1.64,0,0,0,.21.82,1.53,1.53,0,0,0,.55.58A1.37,1.37,0,0,0,118.77,48.72Z" fill="#231f20"/><path d="M125.29,49.73a2.31,2.31,0,0,1-1.26-.36,2.57,2.57,0,0,1-.9-.95,2.6,2.6,0,0,1-.34-1.32,2.7,2.7,0,0,1,.19-1,2.63,2.63,0,0,1,.54-.84,2.54,2.54,0,0,1,.8-.57,2.25,2.25,0,0,1,1-.2,2.45,2.45,0,0,1,1,.23,2.39,2.39,0,0,1,.82.66,2.59,2.59,0,0,1,.5,1,2.92,2.92,0,0,1,.1,1.15H123.9a1.64,1.64,0,0,0,.26.62,1.27,1.27,0,0,0,.48.44,1.4,1.4,0,0,0,.65.17,1.38,1.38,0,0,0,.69-.19,1.52,1.52,0,0,0,.51-.53l1.06.25a2.57,2.57,0,0,1-.91,1.08A2.31,2.31,0,0,1,125.29,49.73Zm-1.42-3.06h2.84a1.71,1.71,0,0,0-.25-.66,1.6,1.6,0,0,0-.51-.46,1.37,1.37,0,0,0-1.32,0,1.38,1.38,0,0,0-.5.46A1.61,1.61,0,0,0,123.87,46.67Z" fill="#231f20"/><path d="M132.38,49.6v-7H135a1.92,1.92,0,0,1,1,.28,2,2,0,0,1,.72.75,2.05,2.05,0,0,1,.27,1,2,2,0,0,1-.69,1.59,2.11,2.11,0,0,1-.75.41l1.69,2.92H136l-1.64-2.83h-1V49.6Zm1-3.87h1.42a1,1,0,0,0,.55-.15,1,1,0,0,0,.39-.4,1.07,1.07,0,0,0,.15-.56,1.1,1.1,0,0,0-.15-.57,1,1,0,0,0-.39-.4,1,1,0,0,0-.55-.15h-1.42Z" fill="#231f20"/><path d="M140.78,49.73a2.25,2.25,0,0,1-1.25-.36,2.7,2.7,0,0,1-1.05-3.3,2.63,2.63,0,0,1,.54-.84,2.5,2.5,0,0,1,.79-.57,2.31,2.31,0,0,1,1-.2,2.46,2.46,0,0,1,1.06.23,2.49,2.49,0,0,1,.82.66,2.8,2.8,0,0,1,.59,2.11H139.4a1.62,1.62,0,0,0,.25.62,1.37,1.37,0,0,0,1.13.61,1.38,1.38,0,0,0,.7-.19A1.73,1.73,0,0,0,142,48l1,.25a2.62,2.62,0,0,1-.9,1.08A2.36,2.36,0,0,1,140.78,49.73Zm-1.42-3.06h2.84A1.44,1.44,0,0,0,142,46a1.47,1.47,0,0,0-.5-.46,1.31,1.31,0,0,0-.67-.17,1.24,1.24,0,0,0-.65.17,1.3,1.3,0,0,0-.5.46A1.62,1.62,0,0,0,139.36,46.67Z" fill="#231f20"/><path d="M147.34,45.64h-1.05v4h-1v-4h-.79v-1h.79V43h1V44.6h1.05Z" fill="#231f20"/><path d="M151,49.73a2.31,2.31,0,0,1-1.26-.36,2.57,2.57,0,0,1-.9-.95,2.6,2.6,0,0,1-.34-1.32,2.7,2.7,0,0,1,.19-1,2.63,2.63,0,0,1,.54-.84,2.54,2.54,0,0,1,.8-.57,2.25,2.25,0,0,1,1-.2,2.45,2.45,0,0,1,1.05.23,2.39,2.39,0,0,1,.82.66,2.59,2.59,0,0,1,.5,1,2.92,2.92,0,0,1,.1,1.15h-3.86a1.8,1.8,0,0,0,.25.62,1.44,1.44,0,0,0,.48.44,1.47,1.47,0,0,0,.66.17,1.38,1.38,0,0,0,.69-.19,1.52,1.52,0,0,0,.51-.53l1.06.25a2.57,2.57,0,0,1-.91,1.08A2.31,2.31,0,0,1,151,49.73Zm-1.42-3.06h2.84a1.58,1.58,0,0,0-.26-.66,1.47,1.47,0,0,0-.5-.46,1.37,1.37,0,0,0-1.32,0,1.38,1.38,0,0,0-.5.46A1.61,1.61,0,0,0,149.55,46.67Z" fill="#231f20"/><path d="M159.42,46.46V49.6h-1V46.72a1.2,1.2,0,0,0-.6-1,1.16,1.16,0,0,0-.61-.16,1.18,1.18,0,0,0-.61.16,1.24,1.24,0,0,0-.44.44,1.13,1.13,0,0,0-.16.61V49.6h-1v-5h1v.53a1.74,1.74,0,0,1,.64-.49,1.86,1.86,0,0,1,.82-.18,2,2,0,0,1,1,.27,2.07,2.07,0,0,1,.72.72A1.93,1.93,0,0,1,159.42,46.46Z" fill="#231f20"/><path d="M163.71,45.64h-1.05v4h-1v-4h-.8v-1h.8V43h1V44.6h1.05Z" fill="#231f20"/><path d="M165.72,43.87a.55.55,0,0,1-.4-.15.53.53,0,0,1-.16-.39.5.5,0,0,1,.16-.39.51.51,0,0,1,.39-.16.55.55,0,0,1,.55.55.53.53,0,0,1-.16.39A.52.52,0,0,1,165.72,43.87Zm-.53.73h1v5h-1Z" fill="#231f20"/><path d="M170.19,49.73a2.31,2.31,0,0,1-1.26-.36,2.57,2.57,0,0,1-.9-.95,2.6,2.6,0,0,1-.34-1.32,2.7,2.7,0,0,1,.19-1,2.63,2.63,0,0,1,.54-.84,2.54,2.54,0,0,1,.8-.57,2.25,2.25,0,0,1,1-.2,2.3,2.3,0,0,1,1.26.35,2.77,2.77,0,0,1,.9,1,2.61,2.61,0,0,1,.34,1.33,2.69,2.69,0,0,1-.2,1A2.87,2.87,0,0,1,172,49a2.66,2.66,0,0,1-.8.57A2.29,2.29,0,0,1,170.19,49.73Zm0-1a1.37,1.37,0,0,0,.74-.22,1.67,1.67,0,0,0,.53-.59,1.73,1.73,0,0,0,.19-.78,1.67,1.67,0,0,0-.2-.8,1.59,1.59,0,0,0-.53-.59,1.32,1.32,0,0,0-.73-.21,1.26,1.26,0,0,0-.74.22,1.48,1.48,0,0,0-.53.58,1.66,1.66,0,0,0-.19.8,1.56,1.56,0,0,0,.2.8,1.53,1.53,0,0,0,.53.57A1.33,1.33,0,0,0,170.19,48.69Z" fill="#231f20"/><path d="M178.65,46.46V49.6h-1V46.72a1.2,1.2,0,0,0-.6-1,1.16,1.16,0,0,0-.61-.16,1.18,1.18,0,0,0-.61.16,1.24,1.24,0,0,0-.44.44,1.13,1.13,0,0,0-.16.61V49.6h-1v-5h1v.53a1.74,1.74,0,0,1,.64-.49,1.86,1.86,0,0,1,.82-.18,2,2,0,0,1,1,.27,2.07,2.07,0,0,1,.72.72A1.93,1.93,0,0,1,178.65,46.46Z" fill="#231f20"/><path d="M185.84,49.73a3.38,3.38,0,0,1-1.1-.18,2.91,2.91,0,0,1-.93-.52,1.91,1.91,0,0,1-.56-.8l1-.37a1,1,0,0,0,.33.43,2,2,0,0,0,.58.29,2.35,2.35,0,0,0,.71.11,2.38,2.38,0,0,0,.76-.13,1.64,1.64,0,0,0,.57-.36.8.8,0,0,0,.21-.54.68.68,0,0,0-.22-.53,1.71,1.71,0,0,0-.58-.32,4.44,4.44,0,0,0-.74-.18,6.67,6.67,0,0,1-1.32-.35,2.32,2.32,0,0,1-.92-.65,1.7,1.7,0,0,1-.33-1.08,1.78,1.78,0,0,1,.35-1.09,2.38,2.38,0,0,1,.95-.72,3.17,3.17,0,0,1,1.27-.26,3.43,3.43,0,0,1,1.1.18,3,3,0,0,1,.93.51,1.94,1.94,0,0,1,.57.82l-1,.36a.91.91,0,0,0-.33-.43,1.91,1.91,0,0,0-.57-.29,2.46,2.46,0,0,0-.72-.1,1.83,1.83,0,0,0-.74.12,1.38,1.38,0,0,0-.57.37.73.73,0,0,0-.22.53.77.77,0,0,0,.2.57,1.26,1.26,0,0,0,.55.29c.24.06.5.12.78.17a5.13,5.13,0,0,1,1.28.36,2.48,2.48,0,0,1,.94.68,1.55,1.55,0,0,1,.36,1,1.71,1.71,0,0,1-.36,1.08,2.3,2.3,0,0,1-.94.73A3.18,3.18,0,0,1,185.84,49.73Z" fill="#231f20"/><path d="M193.28,44.6h1.11l-2.74,7.5h-1.1l.9-2.5-1.79-5h1.13L192,48.17Z" fill="#231f20"/><path d="M197.29,49.69a2.93,2.93,0,0,1-.77-.16,2.13,2.13,0,0,1-.66-.37,1.58,1.58,0,0,1-.42-.54l.89-.38a.85.85,0,0,0,.22.26,1.22,1.22,0,0,0,.39.21,1.18,1.18,0,0,0,.46.09,1.49,1.49,0,0,0,.43-.07.89.89,0,0,0,.34-.21.49.49,0,0,0,.13-.33.43.43,0,0,0-.15-.35,1,1,0,0,0-.37-.18l-.44-.13a4.32,4.32,0,0,1-.9-.3,1.81,1.81,0,0,1-.64-.5,1.15,1.15,0,0,1-.24-.74,1.31,1.31,0,0,1,.26-.83,1.58,1.58,0,0,1,.68-.54,2.11,2.11,0,0,1,.9-.19,2.37,2.37,0,0,1,1.1.25,1.81,1.81,0,0,1,.77.7l-.83.49a.8.8,0,0,0-.22-.27,1.41,1.41,0,0,0-.34-.19,1.1,1.1,0,0,0-.4-.08,1.42,1.42,0,0,0-.47.05.78.78,0,0,0-.35.22.55.55,0,0,0-.13.37.35.35,0,0,0,.16.32,1.42,1.42,0,0,0,.39.18l.49.14a5.55,5.55,0,0,1,.83.34,2,2,0,0,1,.63.5,1.06,1.06,0,0,1,.23.72A1.3,1.3,0,0,1,199,49a1.91,1.91,0,0,1-.73.54A2.2,2.2,0,0,1,197.29,49.69Z" fill="#231f20"/><path d="M203.41,45.64h-1v4h-1v-4h-.8v-1h.8V43h1V44.6h1Z" fill="#231f20"/><path d="M207,49.73a2.31,2.31,0,0,1-1.26-.36,2.65,2.65,0,0,1-.9-.95,2.74,2.74,0,0,1-.14-2.35,2.63,2.63,0,0,1,.54-.84,2.5,2.5,0,0,1,.79-.57,2.31,2.31,0,0,1,1-.2,2.46,2.46,0,0,1,1.06.23,2.49,2.49,0,0,1,.82.66,2.8,2.8,0,0,1,.59,2.11h-3.85a1.48,1.48,0,0,0,.25.62,1.35,1.35,0,0,0,.48.44,1.36,1.36,0,0,0,1.35,0,1.73,1.73,0,0,0,.51-.53l1,.25a2.62,2.62,0,0,1-.9,1.08A2.36,2.36,0,0,1,207,49.73Zm-1.42-3.06h2.84a1.56,1.56,0,0,0-.25-.66,1.5,1.5,0,0,0-.51-.46,1.25,1.25,0,0,0-.66-.17,1.3,1.3,0,0,0-.66.17,1.46,1.46,0,0,0-.5.46A1.76,1.76,0,0,0,205.61,46.67Z" fill="#231f20"/><path d="M211,49.6v-5h1v.53a1.92,1.92,0,0,1,.64-.49,1.86,1.86,0,0,1,.82-.18,2,2,0,0,1,1,.25,2,2,0,0,1,.72.69,1.93,1.93,0,0,1,.7-.69,2,2,0,0,1,1-.25,1.93,1.93,0,0,1,1,.27,2,2,0,0,1,.73.72,1.93,1.93,0,0,1,.27,1V49.6h-1V46.73a1.26,1.26,0,0,0-.16-.61,1.29,1.29,0,0,0-.43-.44,1,1,0,0,0-.6-.17,1.12,1.12,0,0,0-.6.16,1.11,1.11,0,0,0-.43.43,1.18,1.18,0,0,0-.16.63V49.6h-1V46.73a1.28,1.28,0,0,0-.16-.63,1.14,1.14,0,0,0-.44-.43,1.12,1.12,0,0,0-.6-.16,1.09,1.09,0,0,0-.6.17,1.29,1.29,0,0,0-.43.44,1.26,1.26,0,0,0-.16.61V49.6Z" fill="#231f20"/></svg>