<svg xmlns="http://www.w3.org/2000/svg" width="79.96mm" height="21.58mm" viewBox="0 0 226.65 61.16"><path d="M59.53,18.85A16.43,16.43,0,0,0,48.21,9.76a14,14,0,0,0-7-.31.92.92,0,0,1-.74-.08A23.94,23.94,0,0,0,31,7.47a21.32,21.32,0,0,0-8.82,1.18,37.53,37.53,0,0,0-8.5,3.69,12.17,12.17,0,0,0-5.24,6.4c-2.41,6.31.1,14,7.32,15.09.48.07.64.33.76.76,1.35,4.69,4.68,6.92,9.35,7.48a2,2,0,0,0,.35,0,2.2,2.2,0,0,1-.36,0,9.74,9.74,0,0,0,3.84,0,3.9,3.9,0,0,1,3.42,1,19.82,19.82,0,0,1,3.78,3.71,2.12,2.12,0,0,1,.54,1.87,1.45,1.45,0,0,0,2.83.65,1.4,1.4,0,0,0-1-1.89,1.73,1.73,0,0,1-1.08-.85A17.47,17.47,0,0,0,34,42.27c-.23-.17-.61-.25-.56-.68l3.15-1.2a7.18,7.18,0,0,0,1.4-.56c1-.63,1.23-.16,1.5.73.8,2.55,1.4,5.15,1.95,7.77.12.91.27,1.83.38,2.74s.36,1.74-.41,2.59a1.22,1.22,0,0,0,.43,1.79,1.44,1.44,0,0,0,2-.16,1.28,1.28,0,0,0,0-1.95c-.78-.63-.75-1.43-.89-2.24s-.3-1.82-.45-2.73c0-.36-.07-.72-.13-1.07-.23-1.35-.21-1.38,1.14-1.21a17.39,17.39,0,0,0,4.67.06c2.42-.24,4.58-.94,5.83-3.26a.66.66,0,0,0,.3-.59c.07,0,.09-.06.09-.12A10.4,10.4,0,0,1,57.61,37a4.82,4.82,0,0,0,.57-.89,14.25,14.25,0,0,0,2.91-8.07h-1a18.48,18.48,0,0,1-2.81,7.51,1,1,0,0,1,.3,0,1,1,0,0,0-.3,0,14.06,14.06,0,0,1-2,2.21c-.31-1.45-.58-2.83-.9-4.2a3,3,0,0,1,0-2.3,1.23,1.23,0,0,0-.85-1.72,1.43,1.43,0,0,0-1.87.66,1.26,1.26,0,0,0,.5,1.87,2.13,2.13,0,0,1,1.15,1.69c.72,2.67,1.16,5.34.19,8A6.43,6.43,0,0,1,48.71,45a1.48,1.48,0,0,0,.28.28.38.38,0,0,1,.09.09A.38.38,0,0,0,49,45.3a1.48,1.48,0,0,1-.28-.28A26.91,26.91,0,0,1,43.18,45c-1-.09-1.51-.37-1.68-1.44a17,17,0,0,0-1-3.48c-.36-.93-.29-1.51.7-1.86a2,2,0,0,0,.49-.34h0a23.29,23.29,0,0,0,6-4.64,2.62,2.62,0,0,0,0-.28.94.94,0,0,0-.06-.24.94.94,0,0,1,.06.24,2.62,2.62,0,0,1,0,.28,27,27,0,0,0,5.59-6c.36-.48.7-1,1.1-1.42s.55-1.21,1.41-1.34a1.3,1.3,0,0,0,1.08-1.71,1.33,1.33,0,0,0-1.57-1.15,1.35,1.35,0,0,0-1.31,1.67A2.07,2.07,0,0,1,53.54,25c-.36.52-.7,1.06-1,1.6a72.5,72.5,0,0,1-5.25,5.83,64.17,64.17,0,0,1-5.57,4.27c-1.91,1-1.92,1-2.77-1a35.68,35.68,0,0,0-4-7.37c-.69-.93-.64-1.47.29-2h0c1-.59,1.74-1.6,3.14-1.48.72.07,1.08-.66,1.07-1.36a1.39,1.39,0,0,0-1.16-1.48c-.73-.15-1.51.14-1.55.79-.08,1.33-1.15,1.74-1.87,2.49-.08,0-.12,0-.11.13l-.39.29c-.6.43-1,.38-1.51-.28a24.59,24.59,0,0,0-8.91-7.24,7.56,7.56,0,0,0-2.28-.76c.07.13.2.27.27.4-.07-.13-.2-.27-.27-.4l-.5-.16-.32,0A11.09,11.09,0,0,0,11,19.08a.7.7,0,0,1-.19.06l-1.3,1.49-.26-.22A5.54,5.54,0,0,1,10,18.35a12.32,12.32,0,0,1,2.72-4h0l1.41-1.07.28-.18c.24-.55.08-.75-.27-.79.35,0,.51.24.27.79A17.41,17.41,0,0,1,19,11.49a4.84,4.84,0,0,1,1.23-.38,4.84,4.84,0,0,0-1.23.38l.53-.09.43,0h1.7a1.66,1.66,0,0,0,1,0l.42.06a1.43,1.43,0,0,0,1,.17,35,35,0,0,1,10.16,4.12,77.14,77.14,0,0,1,12.29,9.92A1.5,1.5,0,0,1,47.14,27a1.31,1.31,0,0,0,1.42,1.46A1.33,1.33,0,0,0,50,27a1.3,1.3,0,0,0-1.4-1.47A1.57,1.57,0,0,1,47.39,25c-.62-.63-1.27-1.24-1.92-1.84a60,60,0,0,0-11-8.4c-.17-.32-.74-.29-.7-.8l.29-.31h0a19,19,0,0,1,6.66-3A28.74,28.74,0,0,1,49,16.37,1.9,1.9,0,0,1,49.77,18a1.28,1.28,0,0,0,1.4,1.46,1.33,1.33,0,0,0,1.49-1.26,1.38,1.38,0,0,0-1.29-1.7,1.84,1.84,0,0,1-1.32-.68,27.08,27.08,0,0,0-7.12-5.39,16.41,16.41,0,0,1,4.57.19h0a16.48,16.48,0,0,1,11.24,9.3,17.2,17.2,0,0,1,1.36,8.13h1A14.84,14.84,0,0,0,59.53,18.85ZM58,35.75a.71.71,0,0,0-.22-.13A.71.71,0,0,1,58,35.75ZM33.83,28.56a53.63,53.63,0,0,1,4.51,8.63c.37.88.23,1.3-.66,1.58a14.11,14.11,0,0,0-1.54.68,36.94,36.94,0,0,1-7,1.66h0a15.05,15.05,0,0,1-6.37-1,8.69,8.69,0,0,1-4.8-5c-.35-.88-.31-1.25.82-1.3a14.6,14.6,0,0,0,5.79-1.42h0l.68-.26.26-.09h0l.75-.37h0a.71.71,0,0,0,.06-.56.71.71,0,0,1-.06.56,31,31,0,0,0,6.18-3.46C33.12,27.8,33.42,27.93,33.83,28.56Zm-8.27,2.56.05,0Zm.1.66-.06,0ZM25,32a.33.33,0,0,0-.19,0A.33.33,0,0,1,25,32Zm0-.81Zm.36,0a.3.3,0,0,0,.19-.05A.3.3,0,0,1,25.34,31.19Zm.35.56a.53.53,0,0,1,.19-.05A.53.53,0,0,0,25.69,31.75Zm.2-.05h0ZM9.38,22.1c.76-.77,1.56-1.51,2.34-2.26h0A11.1,11.1,0,0,1,19.2,17.9c5.54.89,9.49,4.22,12.94,8.36.44.53.15.71-.26,1A61.16,61.16,0,0,1,26,30.72h0l-.27.1h0l-.73.37h0l-.7.27a27,27,0,0,1-5.75,1.32c-.9.06-1.24-.24-1.23-1.13a25.12,25.12,0,0,1,.3-3.36,1.47,1.47,0,0,1,.73-1,1.39,1.39,0,0,0,.39-2.1,1.35,1.35,0,0,0-1.92-.4,1.34,1.34,0,0,0-.53,2A1.63,1.63,0,0,1,16.5,28a14.08,14.08,0,0,0-.32,3.83c0,.62-.11.89-.81.73-4.83-1.07-6.83-5.5-6.58-9.41A1.69,1.69,0,0,1,9.38,22.1ZM21,11h0Zm12.7,1.53c-.8,1-1.62.81-2.67.28a18.66,18.66,0,0,0-6-2,18,18,0,0,0-3.59-.59c.26-.57.86-.39,1.18-.69a31.55,31.55,0,0,1,8.43-1.08,29.23,29.23,0,0,1,7.64,1.46A22.79,22.79,0,0,0,33.71,12.57Z" fill="#f68b33"/><path d="M76.75,11.39v25H73v-25Z" fill="#1360a5"/><path d="M83.41,36.4v-25h4.82c3.5,5.81,10.92,17.8,12.27,20.52h0c-.25-3.09-.23-7.11-.23-11.2V11.39h3.47v25H99.25c-3.19-5.33-11-18.38-12.5-21.2h0c.18,2.73.19,7.13.19,11.64V36.4Z" fill="#1360a5"/><path d="M110.44,11.39h16.33v3.15H114.09v7.73H126v3.14H114.09v11h-3.65Z" fill="#1360a5"/><path d="M153.39,23.76c0,6.9-3.92,13-11.84,13-7.45,0-11.56-5.7-11.56-12.87S134.25,11,141.85,11C148.94,11,153.39,16.29,153.39,23.76Zm-19.53,0c0,5.3,2.65,9.84,7.85,9.84,5.61,0,7.81-4.64,7.81-9.81s-2.49-9.66-7.82-9.66S133.86,18.54,133.86,23.79Z" fill="#1360a5"/><path d="M179.79,26c0-4.57.05-9.3.16-12h-.14c-1.09,4.25-4.84,14.53-7.62,22.39h-3.28c-2.1-6.49-6-18-7.11-22.44h-.12c.2,2.9.29,8.37.29,12.66V36.4H158.5v-25H164c2.67,7.53,5.9,17.2,6.74,20.48h0c.6-2.57,4.44-13.14,7.22-20.48h5.36v25h-3.61Z" fill="#1360a5"/><path d="M193.75,11.39v25H190v-25Z" fill="#1360a5"/><path d="M200.4,11.39h3.71V33.25H217l-.49,3.15H200.4Z" fill="#1360a5"/><path d="M77.76,49.6h-.7l-2.39-3.27-.68.81V49.6h-.54v-7H74v3.7l3.1-3.7h.71L75,45.9Z" fill="#231f20"/><path d="M83.56,46.52V49.6H83v-3a1.49,1.49,0,0,0-.22-.81,1.47,1.47,0,0,0-.58-.58,1.58,1.58,0,0,0-1.61,0,1.47,1.47,0,0,0-.58.58,1.49,1.49,0,0,0-.22.81v3h-.54v-5h.54v.76a2,2,0,0,1,.71-.66,2,2,0,0,1,1-.24,2.08,2.08,0,0,1,1.05.27,2.13,2.13,0,0,1,.74.75A2,2,0,0,1,83.56,46.52Z" fill="#231f20"/><path d="M87.31,49.73a2.31,2.31,0,0,1-1.26-.36,2.57,2.57,0,0,1-.9-.95,2.6,2.6,0,0,1-.34-1.32,2.7,2.7,0,0,1,.19-1,2.63,2.63,0,0,1,.54-.84,2.54,2.54,0,0,1,.8-.57,2.25,2.25,0,0,1,1-.2,2.3,2.3,0,0,1,1.26.35,2.68,2.68,0,0,1,.9,1,2.61,2.61,0,0,1,.34,1.33,2.69,2.69,0,0,1-.2,1,2.87,2.87,0,0,1-.53.83,2.66,2.66,0,0,1-.8.57A2.29,2.29,0,0,1,87.31,49.73Zm0-.54a1.83,1.83,0,0,0,1-.29,2.26,2.26,0,0,0,.7-.77,2.16,2.16,0,0,0,.26-1,2.14,2.14,0,0,0-1-1.82,1.79,1.79,0,0,0-1-.28,1.73,1.73,0,0,0-1,.29,2,2,0,0,0-.7.76,2.1,2.1,0,0,0-.26,1.05,2.05,2.05,0,0,0,.27,1,2,2,0,0,0,.71.76A1.84,1.84,0,0,0,87.31,49.19Z" fill="#231f20"/><path d="M93.06,49.6h-.57l-1.67-5h.52l1.45,4.27,1.43-4.27h.6l1.43,4.27,1.44-4.27h.53l-1.68,5H96l-1.46-4.32Z" fill="#231f20"/><path d="M99.77,49.6V42.1h.54v7.5Z" fill="#231f20"/><path d="M104.34,49.73a2.25,2.25,0,0,1-1.25-.36,2.7,2.7,0,0,1-1-3.3,2.63,2.63,0,0,1,.54-.84,2.5,2.5,0,0,1,.79-.57,2.31,2.31,0,0,1,1-.2,2.4,2.4,0,0,1,1,.21,2.34,2.34,0,0,1,.8.6,2.64,2.64,0,0,1,.51.9,3.27,3.27,0,0,1,.17,1.15h-4.42a2.07,2.07,0,0,0,.32,1,2,2,0,0,0,.69.67,2,2,0,0,0,.92.25,1.73,1.73,0,0,0,1-.3,2.07,2.07,0,0,0,.72-.8l.54.13a2.62,2.62,0,0,1-.9,1.08A2.36,2.36,0,0,1,104.34,49.73Zm-2-2.87h3.89a2.07,2.07,0,0,0-.29-1,2.1,2.1,0,0,0-.7-.69,1.74,1.74,0,0,0-1-.26,1.81,1.81,0,0,0-.94.25,2.07,2.07,0,0,0-.69.69A2.28,2.28,0,0,0,102.39,46.86Z" fill="#231f20"/><path d="M112.49,42.1H113v7.5h-.54v-1a2.08,2.08,0,0,1-.74.84,2,2,0,0,1-1.14.32,2.45,2.45,0,0,1-1-.21,2.71,2.71,0,0,1-.84-.57,2.79,2.79,0,0,1-.57-.83,2.73,2.73,0,0,1,0-2,2.84,2.84,0,0,1,.57-.84,2.53,2.53,0,0,1,.84-.56,2.45,2.45,0,0,1,1-.21,2,2,0,0,1,1.14.32,2.08,2.08,0,0,1,.74.84Zm-1.88,7.1a1.68,1.68,0,0,0,1-.29,1.75,1.75,0,0,0,.63-.76,2.44,2.44,0,0,0,.22-1,2.47,2.47,0,0,0-.22-1.07,1.88,1.88,0,0,0-.63-.76,1.72,1.72,0,0,0-1-.28,2,2,0,0,0-1,.28,2.16,2.16,0,0,0-.76.77,2,2,0,0,0-.28,1.06,1.94,1.94,0,0,0,.29,1.06,2.13,2.13,0,0,0,.76.76A2,2,0,0,0,110.61,49.2Z" fill="#231f20"/><path d="M118.92,44.6h.54v5.21a2,2,0,0,1-.2.87,2.46,2.46,0,0,1-.55.73,2.67,2.67,0,0,1-.78.5,2.43,2.43,0,0,1-.91.19,2.24,2.24,0,0,1-1-.25,2.64,2.64,0,0,1-.84-.64,2.37,2.37,0,0,1-.49-.89l.5-.23a1.78,1.78,0,0,0,.37.74,2.16,2.16,0,0,0,.67.53,1.73,1.73,0,0,0,.79.19,1.86,1.86,0,0,0,.7-.14,2,2,0,0,0,.61-.38,1.79,1.79,0,0,0,.43-.56,1.4,1.4,0,0,0,.16-.66V48.58a2.19,2.19,0,0,1-.74.83,1.92,1.92,0,0,1-1.09.32,2.3,2.3,0,0,1-1-.21,2.58,2.58,0,0,1-.81-.57,2.71,2.71,0,0,1-.54-2.88,2.75,2.75,0,0,1,.54-.84,2.4,2.4,0,0,1,.81-.56,2.3,2.3,0,0,1,1-.21,1.91,1.91,0,0,1,1.09.31,2.15,2.15,0,0,1,.74.84Zm-1.83,4.6a1.64,1.64,0,0,0,1-.29,2.05,2.05,0,0,0,.62-.77,2.58,2.58,0,0,0,.21-1,2.45,2.45,0,0,0-.22-1.06,1.85,1.85,0,0,0-.62-.76,1.56,1.56,0,0,0-1-.29,1.84,1.84,0,0,0-1,.28,2,2,0,0,0-.71.77,2.22,2.22,0,0,0,0,2.12,2.07,2.07,0,0,0,.72.75A1.82,1.82,0,0,0,117.09,49.2Z" fill="#231f20"/><path d="M123.48,49.73a2.31,2.31,0,0,1-1.26-.36,2.57,2.57,0,0,1-.9-.95A2.6,2.6,0,0,1,121,47.1a2.7,2.7,0,0,1,.19-1,2.63,2.63,0,0,1,.54-.84,2.54,2.54,0,0,1,.8-.57,2.25,2.25,0,0,1,1-.2,2.44,2.44,0,0,1,1,.21,2.31,2.31,0,0,1,.79.6,2.5,2.5,0,0,1,.52.9,3.27,3.27,0,0,1,.16,1.15h-4.42a2.2,2.2,0,0,0,.33,1,1.9,1.9,0,0,0,.68.67,2,2,0,0,0,.93.25,1.76,1.76,0,0,0,1-.3,2.13,2.13,0,0,0,.71-.8l.55.13a2.57,2.57,0,0,1-.91,1.08A2.31,2.31,0,0,1,123.48,49.73Zm-2-2.87h3.89a2,2,0,0,0-.3-1,2,2,0,0,0-.7-.69,1.71,1.71,0,0,0-.94-.26,1.76,1.76,0,0,0-.94.25,1.9,1.9,0,0,0-.69.69A2.15,2.15,0,0,0,121.53,46.86Z" fill="#231f20"/><path d="M130.56,49.6v-7h2.28a1.93,1.93,0,0,1,1,.26,2,2,0,0,1,.71.73,2.1,2.1,0,0,1,.26,1,2.05,2.05,0,0,1-.22,1,2,2,0,0,1-.6.69,1.92,1.92,0,0,1-.85.35l1.72,3h-.63l-1.71-3H131.1v3Zm.54-3.49h1.71a1.47,1.47,0,0,0,.74-.2,1.5,1.5,0,0,0,.53-.53,1.46,1.46,0,0,0,.2-.78,1.43,1.43,0,0,0-.2-.77,1.45,1.45,0,0,0-.53-.54,1.47,1.47,0,0,0-.74-.2H131.1Z" fill="#231f20"/><path d="M138.73,49.73a2.31,2.31,0,0,1-1.26-.36,2.57,2.57,0,0,1-.9-.95,2.6,2.6,0,0,1-.34-1.32,2.7,2.7,0,0,1,.19-1,2.63,2.63,0,0,1,.54-.84,2.54,2.54,0,0,1,.8-.57,2.25,2.25,0,0,1,1-.2,2.44,2.44,0,0,1,1,.21,2.31,2.31,0,0,1,.79.6,2.5,2.5,0,0,1,.52.9,3.27,3.27,0,0,1,.16,1.15h-4.42a2.2,2.2,0,0,0,.33,1,1.9,1.9,0,0,0,.68.67,2,2,0,0,0,.93.25,1.76,1.76,0,0,0,1-.3,2.13,2.13,0,0,0,.71-.8l.55.13a2.57,2.57,0,0,1-.91,1.08A2.31,2.31,0,0,1,138.73,49.73Zm-1.95-2.87h3.89a2,2,0,0,0-.3-1,2,2,0,0,0-.7-.69,1.71,1.71,0,0,0-.94-.26,1.76,1.76,0,0,0-.94.25,1.9,1.9,0,0,0-.69.69A2.15,2.15,0,0,0,136.78,46.86Z" fill="#231f20"/><path d="M145.14,45.14h-1.27V49.6h-.54V45.14h-1V44.6h1V43h.54V44.6h1.27Z" fill="#231f20"/><path d="M148.74,49.73a2.25,2.25,0,0,1-1.25-.36,2.7,2.7,0,0,1-1.05-3.3,2.63,2.63,0,0,1,.54-.84,2.5,2.5,0,0,1,.79-.57,2.31,2.31,0,0,1,1-.2,2.4,2.4,0,0,1,1,.21,2.34,2.34,0,0,1,.8.6,2.64,2.64,0,0,1,.51.9,3.27,3.27,0,0,1,.17,1.15h-4.42a2.07,2.07,0,0,0,.32,1,2,2,0,0,0,.69.67,2,2,0,0,0,.92.25,1.73,1.73,0,0,0,1-.3,2.07,2.07,0,0,0,.72-.8l.54.13a2.62,2.62,0,0,1-.9,1.08A2.36,2.36,0,0,1,148.74,49.73Zm-2-2.87h3.89a2.07,2.07,0,0,0-.29-1,2.1,2.1,0,0,0-.7-.69,1.74,1.74,0,0,0-.95-.26,1.81,1.81,0,0,0-.94.25,2.07,2.07,0,0,0-.69.69A2.28,2.28,0,0,0,146.79,46.86Z" fill="#231f20"/><path d="M157,46.52V49.6h-.54v-3a1.49,1.49,0,0,0-.22-.81,1.47,1.47,0,0,0-.58-.58,1.58,1.58,0,0,0-1.61,0,1.56,1.56,0,0,0-.8,1.39v3h-.54v-5h.54v.76a2,2,0,0,1,.71-.66,2,2,0,0,1,1-.24,2.08,2.08,0,0,1,1.05.27,2.13,2.13,0,0,1,.74.75A2,2,0,0,1,157,46.52Z" fill="#231f20"/><path d="M161.2,45.14h-1.26V49.6h-.54V45.14h-1V44.6h1V43h.54V44.6h1.26Z" fill="#231f20"/><path d="M163,43.65a.32.32,0,0,1-.23-.09.29.29,0,0,1-.1-.23.3.3,0,0,1,.1-.24.34.34,0,0,1,.46,0,.3.3,0,0,1,.1.24.32.32,0,0,1-.09.23A.34.34,0,0,1,163,43.65Zm-.27,1h.54v5h-.54Z" fill="#231f20"/><path d="M167.29,49.73a2.31,2.31,0,0,1-1.26-.36,2.75,2.75,0,0,1-1.05-3.3,2.63,2.63,0,0,1,.54-.84,2.54,2.54,0,0,1,.8-.57,2.43,2.43,0,0,1,2.22.15,2.7,2.7,0,0,1,.51,4.14,2.5,2.5,0,0,1-.79.57A2.29,2.29,0,0,1,167.29,49.73Zm0-.54a1.77,1.77,0,0,0,1-.29,2.19,2.19,0,0,0,.71-.77,2.16,2.16,0,0,0,.26-1,2.14,2.14,0,0,0-1-1.82,1.79,1.79,0,0,0-1-.28,1.73,1.73,0,0,0-1,.29,2.08,2.08,0,0,0-.71.76,2.2,2.2,0,0,0-.25,1.05,2.15,2.15,0,0,0,.26,1,2.1,2.1,0,0,0,.72.76A1.84,1.84,0,0,0,167.29,49.19Z" fill="#231f20"/><path d="M175.6,46.52V49.6h-.54v-3a1.49,1.49,0,0,0-.22-.81,1.47,1.47,0,0,0-.58-.58,1.58,1.58,0,0,0-1.61,0,1.56,1.56,0,0,0-.8,1.39v3h-.54v-5h.54v.76a2,2,0,0,1,.71-.66,2,2,0,0,1,1-.24,2.08,2.08,0,0,1,1.05.27,2.13,2.13,0,0,1,.74.75A2,2,0,0,1,175.6,46.52Z" fill="#231f20"/><path d="M182.72,49.73a3.21,3.21,0,0,1-1.07-.18,2.75,2.75,0,0,1-.91-.49,1.62,1.62,0,0,1-.54-.76l.5-.19a1.24,1.24,0,0,0,.44.58,2.28,2.28,0,0,0,.73.37,3.13,3.13,0,0,0,.85.13,2.56,2.56,0,0,0,1-.18,2,2,0,0,0,.72-.49,1.09,1.09,0,0,0,.27-.74,1,1,0,0,0-.28-.71,2.14,2.14,0,0,0-.74-.44,5.28,5.28,0,0,0-.93-.25,7.11,7.11,0,0,1-1.27-.33,2.21,2.21,0,0,1-.89-.59,1.54,1.54,0,0,1-.32-1,1.6,1.6,0,0,1,.34-1,2.34,2.34,0,0,1,.92-.67,3.05,3.05,0,0,1,1.22-.24,3.39,3.39,0,0,1,1.05.16,2.75,2.75,0,0,1,.91.49,1.69,1.69,0,0,1,.57.78l-.51.19a1.26,1.26,0,0,0-.44-.59,2.17,2.17,0,0,0-.73-.36,2.74,2.74,0,0,0-.85-.13,2.55,2.55,0,0,0-1,.17,1.86,1.86,0,0,0-.71.5,1.08,1.08,0,0,0-.27.73,1,1,0,0,0,.25.75,1.54,1.54,0,0,0,.7.4,9,9,0,0,0,1,.24,5.31,5.31,0,0,1,1.23.35,2.46,2.46,0,0,1,.91.63,1.36,1.36,0,0,1,.35,1,1.57,1.57,0,0,1-.35,1,2.25,2.25,0,0,1-.91.68A3.07,3.07,0,0,1,182.72,49.73Z" fill="#231f20"/><path d="M190.05,44.6h.56l-2.73,7.5h-.57l.91-2.5-1.8-5H187l1.48,4.25Z" fill="#231f20"/><path d="M193.75,49.69a2.59,2.59,0,0,1-1.51-.53,1.39,1.39,0,0,1-.41-.54l.48-.21a.84.84,0,0,0,.33.41,1.9,1.9,0,0,0,.55.28,1.8,1.8,0,0,0,.6.1,1.9,1.9,0,0,0,.63-.11,1.37,1.37,0,0,0,.48-.33.72.72,0,0,0,.18-.49.62.62,0,0,0-.19-.48,1.59,1.59,0,0,0-.5-.28l-.62-.2q-.56-.16-1-.33a1.69,1.69,0,0,1-.62-.42,1.1,1.1,0,0,1-.22-.69,1.19,1.19,0,0,1,.26-.76,1.64,1.64,0,0,1,.67-.51,2.17,2.17,0,0,1,.89-.17,2.28,2.28,0,0,1,1.11.27,1.48,1.48,0,0,1,.71.71l-.44.26a.93.93,0,0,0-.31-.4,1.74,1.74,0,0,0-.49-.25,1.84,1.84,0,0,0-.56-.1,1.74,1.74,0,0,0-.65.11,1.2,1.2,0,0,0-.49.32.8.8,0,0,0-.18.52.58.58,0,0,0,.17.46,1.22,1.22,0,0,0,.47.25l.71.23c.31.1.6.21.87.32a1.93,1.93,0,0,1,.64.45.92.92,0,0,1,.25.68,1.19,1.19,0,0,1-.27.77,1.75,1.75,0,0,1-.68.5A2.25,2.25,0,0,1,193.75,49.69Z" fill="#231f20"/><path d="M199.63,45.14h-1.27V49.6h-.54V45.14h-.95V44.6h.95V43h.54V44.6h1.27Z" fill="#231f20"/><path d="M203.23,49.73a2.31,2.31,0,0,1-1.26-.36,2.65,2.65,0,0,1-.9-.95,2.6,2.6,0,0,1-.34-1.32,2.7,2.7,0,0,1,.2-1,2.79,2.79,0,0,1,.53-.84,2.66,2.66,0,0,1,.8-.57,2.31,2.31,0,0,1,1-.2,2.4,2.4,0,0,1,1,.21,2.34,2.34,0,0,1,.8.6,2.64,2.64,0,0,1,.51.9,3.27,3.27,0,0,1,.17,1.15H201.3a2.07,2.07,0,0,0,.32,1,2,2,0,0,0,.69.67,2,2,0,0,0,.92.25,1.73,1.73,0,0,0,1-.3,2.07,2.07,0,0,0,.72-.8l.54.13a2.62,2.62,0,0,1-.9,1.08A2.36,2.36,0,0,1,203.23,49.73Zm-1.95-2.87h3.89a2.08,2.08,0,0,0-1-1.64,1.74,1.74,0,0,0-1-.26,1.81,1.81,0,0,0-.94.25,2.07,2.07,0,0,0-.69.69A2.28,2.28,0,0,0,201.28,46.86Z" fill="#231f20"/><path d="M207.24,49.6v-5h.54v.76a2,2,0,0,1,.71-.66,2.11,2.11,0,0,1,2,0,2,2,0,0,1,.74.77,2.1,2.1,0,0,1,.74-.77,2,2,0,0,1,1.06-.28,2.07,2.07,0,0,1,1,.27,2.13,2.13,0,0,1,.74.75,2,2,0,0,1,.28,1V49.6h-.54v-3a1.57,1.57,0,0,0-.21-.8,1.67,1.67,0,0,0-.56-.59A1.46,1.46,0,0,0,213,45a1.53,1.53,0,0,0-.79.21,1.56,1.56,0,0,0-.57.57,1.64,1.64,0,0,0-.21.84v3h-.54v-3a1.64,1.64,0,0,0-.21-.84,1.56,1.56,0,0,0-.57-.57,1.51,1.51,0,0,0-.79-.21,1.42,1.42,0,0,0-.78.23,1.61,1.61,0,0,0-.57.59,1.57,1.57,0,0,0-.21.8v3Z" fill="#231f20"/></svg>